# xmcd
#
# Track frame offsets:
#	150
#	17524
#	50876
#	65867
#	102735
#	125923
#	142573
#	174152
#	198709
#	219642
#	245365
#	260139
#	282540
#	305863
#
# Disc length: 4365 seconds
#
# Revision: 1
# Processed by: cddbd v1.5.2PL0 Copyright (c) Steve Scherf et al.
# Submitted via: audiograbber 1.83.01
#
DISCID=e8110b0e
DTITLE=Grateful Dead - 73-12-12 The Omni, Atlanta GA
DYEAR=1900
DGENRE=
TTITLE0=Promised Land
TTITLE1=Sugaree
TTITLE2=Mexicali Blues
TTITLE3=Tennessee Jed
TTITLE4=Jack Straw
TTITLE5=Don't Ease Me In
TTITLE6=Looks Like Rain
TTITLE7=They Love Each Other
TTITLE8=El Paso
TTITLE9=Peggy-O
TTITLE10=BIODTL
TTITLE11=Brown Eyed Women
TTITLE12=Big River
TTITLE13=Deal
EXTD=
EXTT0=
EXTT1=
EXTT2=
EXTT3=
EXTT4=
EXTT5=
EXTT6=
EXTT7=
EXTT8=
EXTT9=
EXTT10=
EXTT11=
EXTT12=
EXTT13=
PLAYORDER=
